<?xml version="1.0" encoding="utf-8" standalone="no"?>
<!DOCTYPE svg PUBLIC "-//W3C//DTD SVG 1.1//EN"
  "http://www.w3.org/Graphics/SVG/1.1/DTD/svg11.dtd">
<svg xmlns:xlink="http://www.w3.org/1999/xlink" width="641.702797pt" height="238.551126pt" viewBox="0 0 641.702797 238.551126" xmlns="http://www.w3.org/2000/svg" version="1.1">
 <metadata>
  <rdf:RDF xmlns:dc="http://purl.org/dc/elements/1.1/" xmlns:cc="http://creativecommons.org/ns#" xmlns:rdf="http://www.w3.org/1999/02/22-rdf-syntax-ns#">
   <cc:Work>
    <dc:type rdf:resource="http://purl.org/dc/dcmitype/StillImage"/>
    <dc:date>2026-01-11T23:08:30.535442</dc:date>
    <dc:format>image/svg+xml</dc:format>
    <dc:creator>
     <cc:Agent>
      <dc:title>Matplotlib v3.9.2, https://matplotlib.org/</dc:title>
     </cc:Agent>
    </dc:creator>
   </cc:Work>
  </rdf:RDF>
 </metadata>
 <defs>
  <style type="text/css">*{stroke-linejoin: round; stroke-linecap: butt}</style>
 </defs>
 <g id="figure_1">
  <g id="patch_1">
   <path d="M 0 238.551126 
L 641.702797 238.551126 
L 641.702797 0 
L 0 0 
z
" style="fill: #ffffff"/>
  </g>
  <g id="axes_1">
   <g id="patch_2">
    <path d="M 20.610066 108.686407 
L 400.770066 108.686407 
L 400.770066 28.852807 
L 20.610066 28.852807 
z
" style="fill: #ffffff"/>
   </g>
   <g id="matplotlib.axis_1"/>
   <g id="matplotlib.axis_2"/>
   <g id="line2d_1">
    <path d="M -1 107.495715 
L -0.509934 106.464243 
L 0.251147 103.919893 
L 1.012228 100.505187 
L 1.773309 96.316886 
L 3.295471 86.112781 
L 7.861958 52.047673 
L 8.623039 47.569667 
L 9.38412 43.818068 
L 10.145201 40.899186 
L 10.906282 38.895729 
L 11.667363 37.86447 
L 12.428444 37.83463 
L 13.189525 38.807054 
L 13.950606 40.754189 
L 14.711688 43.620858 
L 15.472769 47.325831 
L 16.994931 56.809966 
L 19.278174 74.101604 
L 21.561417 91.168834 
L 23.083579 100.277372 
L 23.844661 103.740872 
L 24.605742 106.339088 
L 25.366823 107.998397 
L 26.127904 108.67178 
L 26.888985 108.340154 
L 27.650066 107.012919 
L 28.411147 104.727681 
L 29.172228 101.549198 
L 29.933309 97.567536 
L 31.455471 87.665541 
L 36.783039 48.761803 
L 37.54412 44.794035 
L 38.305201 41.631328 
L 39.066282 39.3633 
L 39.827363 38.05422 
L 40.588444 37.741182 
L 41.349525 38.433057 
L 42.110606 40.11024 
L 42.871688 42.725205 
L 43.632769 46.203853 
L 44.39385 50.447612 
L 45.916012 60.731178 
L 50.482498 94.733497 
L 51.243579 99.159309 
L 52.004661 102.849664 
L 52.765742 105.699989 
L 53.526823 107.629516 
L 54.287904 108.58357 
L 55.048985 108.535115 
L 55.810066 107.485526 
L 56.571147 105.464543 
L 57.332228 102.529434 
L 58.093309 98.763369 
L 59.615471 89.185764 
L 61.898715 71.843131 
L 64.181958 54.841235 
L 65.70412 45.833927 
L 66.465201 42.43451 
L 67.226282 39.907014 
L 67.987363 38.323059 
L 68.748444 37.727528 
L 69.509525 38.137297 
L 70.270606 39.540755 
L 71.031688 41.898131 
L 71.792769 45.142628 
L 72.55385 49.182306 
L 74.076012 59.17004 
L 78.642498 93.371821 
L 79.403579 97.982848 
L 80.164661 101.891755 
L 80.925742 104.987775 
L 81.686823 107.183179 
L 82.447904 108.415757 
L 83.208985 108.650583 
L 83.970066 107.881001 
L 84.731147 106.128819 
L 85.492228 103.443689 
L 86.253309 99.901696 
L 87.775471 90.670029 
L 89.297633 79.472778 
L 92.341958 56.30159 
L 93.86412 46.935403 
L 94.625201 43.306927 
L 95.386282 40.525649 
L 96.147363 38.670383 
L 96.908444 37.793699 
L 97.669525 37.92044 
L 98.430606 39.047014 
L 99.191688 41.141498 
L 99.952769 44.144542 
L 100.71385 47.971051 
L 102.236012 57.640481 
L 104.519255 75.031128 
L 106.802498 91.964769 
L 108.324661 100.869299 
L 109.085742 104.204049 
L 109.846823 106.66039 
L 110.607904 108.16872 
L 111.368985 108.686297 
L 112.130066 108.198454 
L 112.891147 106.719017 
L 113.652228 104.289906 
L 114.413309 100.979954 
L 115.17439 96.882953 
L 116.696552 86.811196 
L 121.263039 52.656854 
L 122.02412 48.095987 
L 122.785201 44.246614 
L 123.546282 41.217813 
L 124.307363 39.095409 
L 125.068444 37.939545 
L 125.829525 37.782972 
L 126.590606 38.630128 
L 127.351688 40.457008 
L 128.112769 43.211843 
L 128.87385 46.816572 
L 130.396012 56.145942 
L 131.918174 67.395165 
L 134.962498 90.515507 
L 136.484661 99.784598 
L 137.245742 103.350574 
L 138.006823 106.062326 
L 138.767904 107.843013 
L 139.528985 108.642176 
L 140.290066 108.437171 
L 141.051147 107.233806 
L 141.812228 105.066181 
L 142.573309 101.995717 
L 143.33439 98.109422 
L 144.856552 88.349828 
L 147.139796 70.914156 
L 149.423039 54.051679 
L 150.945201 45.251457 
L 151.706282 41.981948 
L 152.467363 39.597183 
L 153.228444 38.164738 
L 153.989525 37.725205 
L 154.750606 38.291036 
L 155.511688 39.8462 
L 156.272769 42.346628 
L 157.03385 45.721467 
L 157.794931 49.875086 
L 159.317093 60.029135 
L 163.883579 94.130169 
L 164.644661 98.640093 
L 165.405742 102.429271 
L 166.166823 105.390332 
L 166.927904 107.43937 
L 167.688985 108.518322 
L 168.450066 108.596615 
L 169.211147 107.67203 
L 169.972228 105.770767 
L 170.733309 102.946701 
L 171.49439 99.279855 
L 173.016552 89.854384 
L 175.299796 72.595794 
L 177.583039 55.4896 
L 179.105201 46.319196 
L 179.866282 42.816334 
L 180.627363 40.174574 
L 181.388444 38.468772 
L 182.149525 37.747266 
L 182.910606 38.030501 
L 183.671688 39.31045 
L 184.432769 41.550845 
L 185.19385 44.6882 
L 185.954931 48.633614 
L 187.477093 58.481694 
L 189.760336 75.959396 
L 191.282498 87.503483 
L 192.804661 97.438357 
L 193.565742 101.442212 
L 194.326823 104.64592 
L 195.087904 106.958698 
L 195.848985 108.315011 
L 196.610066 108.676427 
L 197.371147 108.032702 
L 198.132228 106.40208 
L 198.893309 103.830765 
L 199.65439 100.391619 
L 200.415471 96.182096 
L 201.937633 85.947499 
L 206.50412 51.905632 
L 207.265201 47.447428 
L 208.026282 43.719095 
L 208.787363 40.826283 
L 209.548444 38.850963 
L 210.309525 37.849108 
L 211.070606 37.849108 
L 211.831688 38.850963 
L 212.592769 40.826283 
L 213.35385 43.719095 
L 214.114931 47.447428 
L 215.637093 56.96738 
L 217.920336 74.278804 
L 220.203579 91.321478 
L 221.725742 100.391619 
L 222.486823 103.830765 
L 223.247904 106.40208 
L 224.008985 108.032702 
L 224.770066 108.676427 
L 225.531147 108.315011 
L 226.292228 106.958698 
L 227.053309 104.64592 
L 227.81439 101.442212 
L 228.575471 97.438357 
L 230.097633 87.503483 
L 235.425201 48.633614 
L 236.186282 44.6882 
L 236.947363 41.550845 
L 237.708444 39.31045 
L 238.469525 38.030501 
L 239.230606 37.747266 
L 239.991688 38.468772 
L 240.752769 40.174574 
L 241.51385 42.816334 
L 242.274931 46.319196 
L 243.036012 50.5839 
L 244.558174 60.897286 
L 249.124661 94.874135 
L 249.885742 99.279855 
L 250.646823 102.946701 
L 251.407904 105.770767 
L 252.168985 107.67203 
L 252.930066 108.596615 
L 253.691147 108.518322 
L 254.452228 107.43937 
L 255.213309 105.390332 
L 255.97439 102.429271 
L 256.735471 98.640093 
L 258.257633 89.027295 
L 260.540877 71.666012 
L 262.82412 54.689785 
L 264.346282 45.721467 
L 265.107363 42.346628 
L 265.868444 39.8462 
L 266.629525 38.291036 
L 267.390606 37.725205 
L 268.151688 38.164738 
L 268.912769 39.597183 
L 269.67385 41.981948 
L 270.434931 45.251457 
L 271.196012 49.313065 
L 272.718174 59.333026 
L 277.284661 93.517419 
L 278.045742 98.109422 
L 278.806823 101.995717 
L 279.567904 105.066181 
L 280.328985 107.233806 
L 281.090066 108.437171 
L 281.851147 108.642176 
L 282.612228 107.843013 
L 283.373309 106.062326 
L 284.13439 103.350574 
L 284.895471 99.784598 
L 286.417633 90.515507 
L 287.939796 79.298221 
L 290.98412 56.145942 
L 292.506282 46.816572 
L 293.267363 43.211843 
L 294.028444 40.457008 
L 294.789525 38.630128 
L 295.550606 37.782972 
L 296.311688 37.939545 
L 297.072769 39.095409 
L 297.83385 41.217813 
L 298.594931 44.246614 
L 299.356012 48.095987 
L 300.878174 57.799977 
L 303.161417 75.208137 
L 305.444661 92.114998 
L 306.966823 100.979954 
L 307.727904 104.289906 
L 308.488985 106.719017 
L 309.250066 108.198454 
L 310.011147 108.686297 
L 310.772228 108.16872 
L 311.533309 106.66039 
L 312.29439 104.204049 
L 313.055471 100.869299 
L 313.816552 96.750637 
L 315.338715 86.647311 
L 319.905201 52.512594 
L 320.666282 47.971051 
L 321.427363 44.144542 
L 322.188444 41.141498 
L 322.949525 39.047014 
L 323.710606 37.92044 
L 324.471688 37.793699 
L 325.232769 38.670383 
L 325.99385 40.525649 
L 326.754931 43.306927 
L 327.516012 46.935403 
L 329.038174 56.30159 
L 330.560336 67.570112 
L 333.604661 90.670029 
L 335.126823 99.901696 
L 335.887904 103.443689 
L 336.648985 106.128819 
L 337.410066 107.881001 
L 338.171147 108.650583 
L 338.932228 108.415757 
L 339.693309 107.183179 
L 340.45439 104.987775 
L 341.215471 101.891755 
L 341.976552 97.982848 
L 343.498715 88.189332 
L 345.781958 70.737287 
L 347.30412 59.17004 
L 348.826282 49.182306 
L 349.587363 45.142628 
L 350.348444 41.898131 
L 351.109525 39.540755 
L 351.870606 38.137297 
L 352.631688 37.727528 
L 353.392769 38.323059 
L 354.15385 39.907014 
L 354.914931 42.43451 
L 355.676012 45.833927 
L 356.437093 50.008937 
L 357.959255 60.193892 
L 362.525742 94.273066 
L 363.286823 98.763369 
L 364.047904 102.529434 
L 364.808985 105.464543 
L 365.570066 107.485526 
L 366.331147 108.535115 
L 367.092228 108.58357 
L 367.853309 107.629516 
L 368.61439 105.699989 
L 369.375471 102.849664 
L 370.136552 99.159309 
L 371.658715 89.697637 
L 373.941958 72.418561 
L 376.225201 55.336229 
L 377.747363 46.203853 
L 378.508444 42.725205 
L 379.269525 40.11024 
L 380.030606 38.433057 
L 380.791688 37.741182 
L 381.552769 38.05422 
L 382.31385 39.3633 
L 383.074931 41.631328 
L 383.836012 44.794035 
L 384.597093 48.761803 
L 386.119255 58.643163 
L 388.402498 76.136094 
L 389.924661 87.665541 
L 391.446823 97.567536 
L 392.207904 101.549198 
L 392.968985 104.727681 
L 393.730066 107.012919 
L 394.491147 108.340154 
L 395.252228 108.67178 
L 396.013309 107.998397 
L 396.77439 106.339088 
L 397.535471 103.740872 
L 398.296552 100.277372 
L 399.057633 96.046733 
L 400.579796 85.781899 
L 405.146282 51.764123 
L 405.907363 47.325831 
L 406.668444 43.620858 
L 407.429525 40.754189 
L 408.190606 38.807054 
L 408.951688 37.83463 
L 409.712769 37.86447 
L 410.47385 38.895729 
L 411.234931 40.899186 
L 411.996012 43.818068 
L 412.757093 47.569667 
L 414.279255 57.125198 
L 416.562498 74.455976 
L 418.845742 91.47367 
L 420.367904 100.505187 
L 421.128985 103.919893 
L 421.890066 106.464243 
L 422.651147 108.066138 
L 423.412228 108.680188 
L 424.173309 108.288992 
L 424.93439 106.903635 
L 425.695471 104.563373 
L 426.456552 101.334522 
L 427.217633 97.308574 
L 428.739796 87.341069 
L 434.067363 48.506038 
L 434.828444 44.583076 
L 435.589525 41.471152 
L 436.350606 39.258447 
L 437.111688 38.00766 
L 437.872769 37.754236 
L 438.63385 38.505354 
L 439.394931 40.239732 
L 440.156012 42.908222 
L 440.917093 46.435209 
L 441.678174 50.720752 
L 443.200336 61.0637 
L 447.766823 95.014233 
L 448.527904 99.39975 
L 449.288985 103.042995 
L 450.050066 105.840732 
L 450.811147 107.713684 
L 451.572228 108.608777 
L 452.333309 108.500647 
L 453.09439 107.392359 
L 453.855471 105.315317 
L 454.616552 102.328379 
L 455.377633 98.516181 
L 456.899796 88.868432 
L 459.183039 71.488931 
L 461.466282 54.538798 
L 462.988444 45.609693 
L 463.749525 42.259516 
L 464.510606 39.786219 
L 465.271688 38.259885 
L 466.032769 37.723766 
L 466.79385 38.193054 
L 467.554931 39.65445 
L 468.316012 42.066543 
L 469.077093 45.360984 
L 469.838174 49.44442 
L 471.360336 59.496357 
L 475.926823 93.662509 
L 476.687904 98.235374 
L 477.448985 102.098961 
L 478.210066 105.143791 
L 478.971147 107.283584 
L 479.732228 108.457706 
L 480.493309 108.632886 
L 481.25439 107.80416 
L 482.015471 105.995013 
L 482.776552 103.256707 
L 483.537633 99.666838 
L 485.059796 90.360552 
L 486.581958 79.123511 
L 489.626282 55.99072 
L 491.148444 46.698399 
L 491.909525 43.117508 
L 492.670606 40.389183 
L 493.431688 38.590737 
L 494.192769 37.77313 
L 494.95385 37.95953 
L 495.714931 39.144657 
L 496.476012 41.294926 
L 497.237093 44.349408 
L 497.998174 48.221549 
L 499.520336 57.959858 
L 501.803579 75.385097 
L 504.086823 92.264755 
L 505.608985 101.089915 
L 506.370066 104.374986 
L 507.131147 106.776806 
L 507.892228 108.227315 
L 508.653309 108.685411 
L 509.41439 108.138113 
L 510.175471 106.600929 
L 510.936552 104.117419 
L 511.697633 100.757955 
L 512.458715 96.617732 
L 513.980877 86.48309 
L 518.547363 52.368851 
L 519.308444 47.846745 
L 520.069525 44.043196 
L 520.830606 41.065983 
L 521.591688 38.999471 
L 522.352769 37.902215 
L 523.11385 37.805309 
L 523.874931 38.711499 
L 524.636012 40.595107 
L 525.397093 43.402757 
L 526.158174 47.054891 
L 527.680336 56.45766 
L 529.963579 73.703251 
L 532.246823 90.824116 
L 533.768985 100.018126 
L 534.530066 103.536048 
L 535.291147 106.194491 
L 536.052228 107.918123 
L 536.813309 108.658104 
L 537.57439 108.393465 
L 538.335471 107.131704 
L 539.096552 104.908576 
L 539.857633 101.787076 
L 540.618715 97.855657 
L 542.140877 88.028461 
L 544.42412 70.56048 
L 545.946282 59.007406 
L 547.468444 49.052147 
L 548.229525 45.034499 
L 548.990606 41.815096 
L 549.751688 39.485167 
L 550.512769 38.110732 
L 551.27385 37.730737 
L 552.034931 38.355952 
L 552.796012 39.968659 
L 553.557093 42.523161 
L 554.318174 45.94707 
L 555.079255 50.143367 
L 556.601417 60.358973 
L 561.167904 94.415437 
L 561.928985 98.886008 
L 562.690066 102.628865 
L 563.451147 105.537948 
L 564.212228 107.530826 
L 564.973309 108.551027 
L 565.73439 108.569642 
L 566.495471 107.586143 
L 567.256552 105.6284 
L 568.017633 102.751887 
L 568.778715 99.038116 
L 570.300877 89.540479 
L 572.58412 72.241347 
L 574.867363 55.183305 
L 576.389525 46.089185 
L 577.150606 42.634837 
L 577.911688 40.046732 
L 578.672769 38.39821 
L 579.43385 37.735983 
L 580.194931 38.078816 
L 580.956012 39.416994 
L 581.717093 41.712599 
L 582.478174 44.90058 
L 583.239255 48.890603 
L 584.761417 58.804995 
L 590.088985 97.696106 
L 590.850066 101.655476 
L 590.850066 101.655476 
" clip-path="url(#p2075b40112)" style="fill: none; stroke: #1f77b4; stroke-width: 1.3; stroke-linecap: square"/>
   </g>
   <g id="line2d_2">
    <path d="M -1 69.474712 
L 0.251147 57.809001 
L 1.012228 51.523354 
L 1.773309 46.177501 
L 2.53439 42.00316 
L 3.295471 39.181271 
L 4.056552 37.83415 
L 4.817633 38.020189 
L 5.578715 39.731323 
L 6.339796 42.893382 
L 7.100877 47.369306 
L 7.861958 52.965084 
L 9.38412 66.507963 
L 11.667363 88.184176 
L 13.189525 99.931299 
L 13.950606 104.184434 
L 14.711688 107.094741 
L 15.472769 108.536072 
L 16.23385 108.445951 
L 16.994931 106.828283 
L 17.756012 103.753189 
L 18.517093 99.353959 
L 19.278174 93.821281 
L 20.800336 80.353581 
L 23.083579 58.644402 
L 24.605742 46.783638 
L 25.366823 42.452425 
L 26.127904 39.45419 
L 26.888985 37.918893 
L 27.650066 37.913083 
L 28.411147 39.43701 
L 29.172228 42.42462 
L 29.933309 46.746414 
L 30.69439 52.21506 
L 32.216552 65.60531 
L 34.499796 87.343793 
L 36.021958 99.316198 
L 36.783039 103.724758 
L 37.54412 106.810415 
L 38.305201 108.43942 
L 39.066282 108.541161 
L 39.827363 107.11123 
L 40.588444 104.211608 
L 41.349525 99.967979 
L 42.110606 94.564287 
L 43.632769 81.253747 
L 45.916012 59.489625 
L 47.438174 47.407598 
L 48.199255 42.922434 
L 48.960336 39.749876 
L 49.721417 38.027439 
L 50.482498 37.829783 
L 51.243579 39.165477 
L 52.004661 41.976622 
L 52.765742 46.14137 
L 53.526823 51.479196 
L 55.048985 64.707783 
L 58.093309 93.018087 
L 58.85439 98.683484 
L 59.615471 103.244494 
L 60.376552 106.503419 
L 61.137633 108.318998 
L 61.898715 108.612535 
L 62.659796 107.371305 
L 63.420877 104.64911 
L 64.181958 100.563945 
L 64.943039 95.292885 
L 66.465201 82.148483 
L 69.509525 53.775442 
L 70.270606 48.04896 
L 71.031688 43.412872 
L 71.792769 40.06813 
L 72.55385 38.159715 
L 73.314931 37.770348 
L 74.076012 38.916905 
L 74.837093 41.54969 
L 75.598174 45.554582 
L 76.359255 50.757988 
L 77.881417 63.815988 
L 80.925742 92.246981 
L 81.686823 98.033582 
L 82.447904 102.743966 
L 83.208985 106.173961 
L 83.970066 108.17489 
L 84.731147 108.660023 
L 85.492228 107.608331 
L 86.253309 105.0654 
L 87.01439 101.141456 
L 87.775471 96.006583 
L 89.297633 83.037186 
L 92.341958 54.553036 
L 93.103039 48.707292 
L 93.86412 43.923406 
L 94.625201 40.408737 
L 95.386282 38.315632 
L 96.147363 37.734815 
L 96.908444 38.691464 
L 97.669525 41.144112 
L 98.430606 44.986447 
L 99.191688 50.051922 
L 100.71385 62.930527 
L 103.758174 91.46303 
L 104.519255 97.366931 
L 105.280336 102.223512 
L 106.041417 105.822262 
L 106.802498 108.007192 
L 107.563579 108.683594 
L 108.324661 107.822149 
L 109.085742 105.460198 
L 109.846823 101.70012 
L 110.607904 96.704898 
L 112.130066 83.919257 
L 115.17439 55.343212 
L 115.935471 49.38215 
L 116.696552 44.453693 
L 117.457633 40.771468 
L 118.218715 38.495084 
L 118.979796 37.72321 
L 119.740877 38.489305 
L 120.501958 40.760161 
L 121.263039 44.437347 
L 122.02412 49.361474 
L 123.546282 62.051996 
L 126.590606 90.666763 
L 127.351688 96.683981 
L 128.112769 101.683482 
L 128.87385 105.44856 
L 129.634931 107.816016 
L 130.396012 108.683231 
L 131.157093 108.012616 
L 131.918174 105.833237 
L 132.679255 102.239563 
L 133.440336 97.387362 
L 134.962498 84.794099 
L 138.006823 56.145437 
L 138.767904 50.073077 
L 139.528985 45.003375 
L 140.290066 41.156078 
L 141.051147 38.69795 
L 141.812228 37.73554 
L 142.573309 38.310564 
L 143.33439 40.398096 
L 144.095471 43.907653 
L 144.856552 48.68711 
L 146.378715 61.180989 
L 149.423039 89.858716 
L 150.18412 95.985192 
L 150.945201 101.124241 
L 151.706282 105.053107 
L 152.467363 107.601493 
L 153.228444 108.658936 
L 153.989525 108.179601 
L 154.750606 106.184266 
L 155.511688 102.759419 
L 156.272769 98.053512 
L 157.794931 85.661124 
L 161.600336 50.779609 
L 162.361417 45.572081 
L 163.122498 41.562307 
L 163.883579 38.924094 
L 164.644661 37.771797 
L 165.405742 38.155361 
L 166.166823 40.058163 
L 166.927904 43.397722 
L 167.688985 48.029286 
L 168.450066 53.752095 
L 169.972228 67.442671 
L 172.255471 89.039434 
L 173.016552 95.271036 
L 173.777633 100.546166 
L 174.538715 104.63617 
L 175.299796 107.363766 
L 176.060877 108.610724 
L 176.821958 108.322994 
L 177.583039 106.513047 
L 178.34412 103.259338 
L 179.105201 98.7029 
L 179.866282 93.041233 
L 181.388444 79.421117 
L 183.671688 57.783861 
L 184.432769 51.501269 
L 185.19385 46.159427 
L 185.954931 41.989882 
L 186.716012 39.173364 
L 187.477093 37.831956 
L 188.238174 38.023803 
L 188.999255 39.740589 
L 189.760336 42.907899 
L 190.521417 47.388444 
L 191.282498 52.988013 
L 192.804661 66.535373 
L 195.087904 88.209471 
L 196.610066 99.949647 
L 197.371147 104.19803 
L 198.132228 107.102996 
L 198.893309 108.538628 
L 199.65439 108.442696 
L 200.415471 106.81936 
L 201.176552 103.738983 
L 201.937633 99.335087 
L 202.698715 93.79856 
L 204.220877 80.326242 
L 206.50412 58.618956 
L 208.026282 46.765018 
L 208.787363 42.438513 
L 209.548444 39.44559 
L 210.309525 37.915977 
L 211.070606 37.915977 
L 211.831688 39.44559 
L 212.592769 42.438513 
L 213.35385 46.765018 
L 214.114931 52.237569 
L 215.637093 65.632574 
L 217.920336 87.369386 
L 219.442498 99.335087 
L 220.203579 103.738983 
L 220.964661 106.81936 
L 221.725742 108.442696 
L 222.486823 108.538628 
L 223.247904 107.102996 
L 224.008985 104.19803 
L 224.770066 99.949647 
L 225.531147 94.541995 
L 227.053309 81.226563 
L 229.336552 59.463889 
L 230.858715 47.388444 
L 231.619796 42.907899 
L 232.380877 39.740589 
L 233.141958 38.023803 
L 233.903039 37.831956 
L 234.66412 39.173364 
L 235.425201 41.989882 
L 236.186282 46.159427 
L 236.947363 51.501269 
L 238.469525 64.734883 
L 241.51385 93.041233 
L 242.274931 98.7029 
L 243.036012 103.259338 
L 243.797093 106.513047 
L 244.558174 108.322994 
L 245.319255 108.610724 
L 246.080336 107.363766 
L 246.841417 104.63617 
L 247.602498 100.546166 
L 248.363579 95.271036 
L 249.885742 82.121472 
L 252.930066 53.752095 
L 253.691147 48.029286 
L 254.452228 43.397722 
L 255.213309 40.058163 
L 255.97439 38.155361 
L 256.735471 37.771797 
L 257.496552 38.924094 
L 258.257633 41.562307 
L 259.018715 45.572081 
L 259.779796 50.779609 
L 261.301958 63.842905 
L 264.346282 92.270525 
L 265.107363 98.053512 
L 265.868444 102.759419 
L 266.629525 106.184266 
L 267.390606 108.179601 
L 268.151688 108.658936 
L 268.912769 107.601493 
L 269.67385 105.053107 
L 270.434931 101.124241 
L 271.196012 95.985192 
L 272.718174 83.010367 
L 275.762498 54.5293 
L 276.523579 48.68711 
L 277.284661 43.907653 
L 278.045742 40.398096 
L 278.806823 38.310564 
L 279.567904 37.73554 
L 280.328985 38.69795 
L 281.090066 41.156078 
L 281.851147 45.003375 
L 282.612228 50.073077 
L 284.13439 62.957243 
L 287.178715 91.486955 
L 287.939796 97.387362 
L 288.700877 102.239563 
L 289.461958 105.833237 
L 290.223039 108.012616 
L 290.98412 108.683231 
L 291.745201 107.816016 
L 292.506282 105.44856 
L 293.267363 101.683482 
L 294.028444 96.683981 
L 295.550606 83.892647 
L 298.594931 55.319102 
L 299.356012 49.361474 
L 300.117093 44.437347 
L 300.878174 40.760161 
L 301.639255 38.489305 
L 302.400336 37.72321 
L 303.161417 38.495084 
L 303.922498 40.771468 
L 304.683579 44.453693 
L 305.444661 49.38215 
L 306.966823 62.078494 
L 310.011147 90.691053 
L 310.772228 96.704898 
L 311.533309 101.70012 
L 312.29439 105.460198 
L 313.055471 107.822149 
L 313.816552 108.683594 
L 314.577633 108.007192 
L 315.338715 105.822262 
L 316.099796 102.223512 
L 316.860877 97.366931 
L 318.383039 84.767717 
L 321.427363 56.12097 
L 322.188444 50.051922 
L 322.949525 44.986447 
L 323.710606 41.144112 
L 324.471688 38.691464 
L 325.232769 37.734815 
L 325.99385 38.315632 
L 326.754931 40.408737 
L 327.516012 43.923406 
L 328.277093 48.707292 
L 329.799255 61.20725 
L 332.843579 89.883355 
L 333.604661 96.006583 
L 334.365742 101.141456 
L 335.126823 105.0654 
L 335.887904 107.608331 
L 336.648985 108.660023 
L 337.410066 108.17489 
L 338.171147 106.173961 
L 338.932228 102.743966 
L 339.693309 98.033582 
L 341.215471 85.634988 
L 345.020877 50.757988 
L 345.781958 45.554582 
L 346.543039 41.54969 
L 347.30412 38.916905 
L 348.065201 37.770348 
L 348.826282 38.159715 
L 349.587363 40.06813 
L 350.348444 43.412872 
L 351.109525 48.04896 
L 352.631688 60.3441 
L 356.437093 95.292885 
L 357.198174 100.563945 
L 357.959255 104.64911 
L 358.720336 107.371305 
L 359.481417 108.612535 
L 360.242498 108.318998 
L 361.003579 106.503419 
L 361.764661 103.244494 
L 362.525742 98.683484 
L 363.286823 93.018087 
L 364.808985 79.393637 
L 367.092228 57.758731 
L 367.853309 51.479196 
L 368.61439 46.14137 
L 369.375471 41.976622 
L 370.136552 39.165477 
L 370.897633 37.829783 
L 371.658715 38.027439 
L 372.419796 39.749876 
L 373.180877 42.922434 
L 373.941958 47.407598 
L 374.703039 53.010955 
L 376.225201 66.562787 
L 378.508444 88.234758 
L 380.030606 99.967979 
L 380.791688 104.211608 
L 381.552769 107.11123 
L 382.31385 108.541161 
L 383.074931 108.43942 
L 383.836012 106.810415 
L 384.597093 103.724758 
L 385.358174 99.316198 
L 386.119255 93.775826 
L 387.641417 80.298898 
L 389.924661 58.593518 
L 391.446823 46.746414 
L 392.207904 42.42462 
L 392.968985 39.43701 
L 393.730066 37.913083 
L 394.491147 37.918893 
L 395.252228 39.45419 
L 396.013309 42.452425 
L 396.77439 46.783638 
L 397.535471 52.26009 
L 399.057633 65.659842 
L 401.340877 87.394971 
L 402.863039 99.353959 
L 403.62412 103.753189 
L 404.385201 106.828283 
L 405.146282 108.445951 
L 405.907363 108.536072 
L 406.668444 107.094741 
L 407.429525 104.184434 
L 408.190606 99.931299 
L 408.951688 94.51969 
L 410.47385 81.199373 
L 412.757093 59.438162 
L 414.279255 47.369306 
L 415.040336 42.893382 
L 415.801417 39.731323 
L 416.562498 38.020189 
L 417.323579 37.83415 
L 418.084661 39.181271 
L 418.845742 42.00316 
L 419.606823 46.177501 
L 420.367904 51.523354 
L 421.890066 64.761988 
L 424.93439 93.064367 
L 425.695471 98.7223 
L 426.456552 103.274163 
L 427.217633 106.522655 
L 427.978715 108.326967 
L 428.739796 108.608891 
L 429.500877 107.356206 
L 430.261958 104.623212 
L 431.023039 100.52837 
L 431.78412 95.249174 
L 433.306282 82.094456 
L 436.350606 53.72876 
L 437.111688 48.009627 
L 437.872769 43.382592 
L 438.63385 40.048216 
L 439.394931 38.15103 
L 440.156012 37.773268 
L 440.917093 38.931304 
L 441.678174 41.574944 
L 442.439255 45.589596 
L 443.200336 50.801244 
L 444.722498 63.869828 
L 447.766823 92.294057 
L 448.527904 98.073426 
L 449.288985 102.774853 
L 450.050066 106.194551 
L 450.811147 108.184291 
L 451.572228 108.657827 
L 452.333309 107.594633 
L 453.09439 105.040795 
L 453.855471 101.107009 
L 454.616552 95.963788 
L 456.138715 82.983542 
L 459.183039 54.505575 
L 459.94412 48.666943 
L 460.705201 43.891918 
L 461.466282 40.387476 
L 462.227363 38.305517 
L 462.988444 37.736287 
L 463.749525 38.704458 
L 464.510606 41.168064 
L 465.271688 45.02032 
L 466.032769 50.094247 
L 467.554931 62.983966 
L 470.599255 91.510869 
L 471.360336 97.407777 
L 472.121417 102.255596 
L 472.882498 105.844192 
L 473.643579 108.018018 
L 474.404661 108.682847 
L 475.165742 107.809862 
L 475.926823 105.436902 
L 476.687904 101.666826 
L 477.448985 96.663049 
L 478.971147 83.866031 
L 482.015471 55.295004 
L 482.776552 49.340813 
L 483.537633 44.421019 
L 484.298715 40.748873 
L 485.059796 38.483547 
L 485.820877 37.723232 
L 486.581958 38.500884 
L 487.343039 40.782796 
L 488.10412 44.470057 
L 488.865201 49.40284 
L 490.387363 62.104999 
L 493.431688 90.715332 
L 494.192769 96.725801 
L 494.95385 101.716741 
L 495.714931 105.471816 
L 496.476012 107.828261 
L 497.237093 108.683934 
L 497.998174 108.001746 
L 498.759255 105.811267 
L 499.520336 102.207443 
L 500.281417 97.346485 
L 501.803579 84.741328 
L 504.847904 56.096514 
L 505.608985 50.03078 
L 506.370066 44.969536 
L 507.131147 41.132165 
L 507.892228 38.684999 
L 508.653309 37.734112 
L 509.41439 38.320721 
L 510.175471 40.419399 
L 510.936552 43.939177 
L 511.697633 48.727489 
L 513.219796 61.233519 
L 516.26412 89.907983 
L 517.025201 96.027959 
L 517.786282 101.158653 
L 518.547363 105.077673 
L 519.308444 107.615148 
L 520.069525 108.661088 
L 520.830606 108.170157 
L 521.591688 106.163635 
L 522.352769 102.728496 
L 523.11385 98.013637 
L 524.636012 85.608843 
L 528.441417 50.73638 
L 529.202498 45.537101 
L 529.963579 41.537092 
L 530.724661 38.909738 
L 531.485742 37.76892 
L 532.246823 38.16409 
L 533.007904 40.078118 
L 533.768985 43.428039 
L 534.530066 48.06865 
L 536.052228 60.370115 
L 539.857633 95.31472 
L 540.618715 100.581708 
L 541.379796 104.66203 
L 542.140877 107.378822 
L 542.901958 108.614324 
L 543.663039 108.314982 
L 544.42412 106.493771 
L 545.185201 103.229632 
L 545.946282 98.664052 
L 546.707363 92.994928 
L 548.229525 79.366154 
L 550.512769 57.733609 
L 551.27385 51.457137 
L 552.034931 46.123329 
L 552.796012 41.963382 
L 553.557093 39.157611 
L 554.318174 37.827633 
L 555.079255 38.031097 
L 555.840336 39.759184 
L 556.601417 42.936989 
L 557.362498 47.426768 
L 558.123579 53.033909 
L 559.645742 66.590205 
L 561.928985 88.260034 
L 563.451147 99.986295 
L 564.212228 104.225166 
L 564.973309 107.119443 
L 565.73439 108.543673 
L 566.495471 108.436121 
L 567.256552 106.80145 
L 568.017633 103.710515 
L 568.778715 99.297294 
L 569.539796 93.75308 
L 571.061958 80.27155 
L 573.345201 58.56809 
L 574.867363 46.727826 
L 575.628444 42.410747 
L 576.389525 39.428451 
L 577.150606 37.91021 
L 577.911688 37.921831 
L 578.672769 39.462811 
L 579.43385 42.466356 
L 580.194931 46.802274 
L 580.956012 52.282625 
L 582.478174 65.687116 
L 584.761417 87.420547 
L 586.283579 99.372816 
L 587.044661 103.767376 
L 587.805742 106.837186 
L 588.566823 108.449183 
L 589.327904 108.533495 
L 590.088985 107.086466 
L 590.850066 104.170818 
L 590.850066 104.170818 
" clip-path="url(#p2075b40112)" style="fill: none; stroke: #d62728; stroke-width: 1.3; stroke-linecap: square"/>
   </g>
   <g id="line2d_3">
    <path d="M 281.090066 108.437171 
" clip-path="url(#p2075b40112)" style="fill: none; stroke: #1f77b4; stroke-linecap: square"/>
    <defs>
     <path id="m6f20e8ad53" d="M 0 2 
C 0.530406 2 1.03916 1.789267 1.414214 1.414214 
C 1.789267 1.03916 2 0.530406 2 0 
C 2 -0.530406 1.789267 -1.03916 1.414214 -1.414214 
C 1.03916 -1.789267 0.530406 -2 0 -2 
C -0.530406 -2 -1.03916 -1.789267 -1.414214 -1.414214 
C -1.789267 -1.03916 -2 -0.530406 -2 0 
C -2 0.530406 -1.789267 1.03916 -1.414214 1.414214 
C -1.03916 1.789267 -0.530406 2 0 2 
z
" style="stroke: #1f77b4"/>
    </defs>
    <g clip-path="url(#p2075b40112)">
     <use xlink:href="#m6f20e8ad53" x="281.090066" y="108.437171" style="fill: #1f77b4; stroke: #1f77b4"/>
    </g>
   </g>
   <g id="text_1">
    <!--   $t$ -->
    <g transform="translate(438.786066 77.389113) scale(0.168 -0.168)">
     <defs>
      <path id="CMMI12-74" d="M 1286 2566 
L 1875 2566 
C 1997 2566 2061 2566 2061 2681 
C 2061 2752 2022 2752 1894 2752 
L 1331 2752 
L 1568 3664 
C 1594 3752 1594 3764 1594 3808 
C 1594 3910 1510 3968 1427 3968 
C 1376 3968 1229 3948 1178 3746 
L 928 2752 
L 326 2752 
C 198 2752 141 2752 141 2630 
C 141 2566 186 2566 307 2566 
L 877 2566 
L 454 881 
C 403 657 384 593 384 510 
C 384 210 595 -64 954 -64 
C 1600 -64 1946 868 1946 913 
C 1946 951 1920 970 1882 970 
C 1869 970 1843 970 1830 944 
C 1824 938 1818 932 1773 830 
C 1638 510 1344 64 973 64 
C 781 64 768 223 768 364 
C 768 370 768 491 787 568 
L 1286 2566 
z
" transform="scale(0.015625)"/>
     </defs>
     <use xlink:href="#CMMI12-74" transform="scale(0.996264)"/>
    </g>
   </g>
   <g id="text_2">
    <!-- $A(t)$ -->
    <g transform="translate(195.215062 16.152917) scale(0.168 -0.168)">
     <defs>
      <path id="CMMI12-41" d="M 1088 720 
C 864 335 646 205 339 185 
C 269 179 218 179 218 64 
C 218 25 250 0 294 0 
C 410 0 698 12 813 12 
C 998 12 1203 0 1382 0 
C 1421 0 1498 0 1498 121 
C 1498 179 1446 185 1408 185 
C 1261 198 1139 250 1139 407 
C 1139 498 1178 570 1261 714 
L 1747 1536 
L 3379 1536 
C 3386 1477 3386 1425 3392 1366 
C 3411 1196 3488 518 3488 394 
C 3488 198 3162 185 3059 185 
C 2989 185 2918 185 2918 70 
C 2918 0 2976 0 3014 0 
C 3123 0 3251 12 3360 12 
L 3725 12 
C 4115 12 4397 0 4403 0 
C 4448 0 4518 0 4518 121 
C 4518 185 4461 185 4365 185 
C 4013 185 4006 244 3987 440 
L 3597 4403 
C 3584 4531 3558 4544 3488 4544 
C 3424 4544 3386 4531 3328 4435 
L 1088 720 
z
M 1856 1721 
L 3142 3831 
L 3360 1721 
L 1856 1721 
z
" transform="scale(0.015625)"/>
      <path id="CMR17-28" d="M 1958 -1562 
C 1958 -1556 1958 -1543 1939 -1524 
C 1645 -1223 858 -403 858 1596 
C 858 3595 1632 4408 1946 4729 
C 1946 4735 1958 4748 1958 4767 
C 1958 4787 1939 4800 1914 4800 
C 1843 4800 1299 4325 986 3620 
C 666 2909 576 2218 576 1603 
C 576 1141 621 360 1005 -467 
C 1312 -1133 1837 -1600 1914 -1600 
C 1946 -1600 1958 -1588 1958 -1562 
z
" transform="scale(0.015625)"/>
      <path id="CMR17-29" d="M 1683 1596 
C 1683 2057 1638 2839 1254 3665 
C 947 4332 422 4800 346 4800 
C 326 4800 301 4793 301 4761 
C 301 4748 307 4742 314 4729 
C 621 4408 1402 3595 1402 1603 
C 1402 -396 627 -1210 314 -1530 
C 307 -1543 301 -1549 301 -1562 
C 301 -1594 326 -1600 346 -1600 
C 416 -1600 960 -1127 1274 -422 
C 1594 289 1683 981 1683 1596 
z
" transform="scale(0.015625)"/>
     </defs>
     <use xlink:href="#CMMI12-41" transform="scale(0.996264)"/>
     <use xlink:href="#CMR17-28" transform="translate(73.127885 0) scale(0.996264)"/>
     <use xlink:href="#CMMI12-74" transform="translate(108.408653 0) scale(0.996264)"/>
     <use xlink:href="#CMR17-29" transform="translate(143.634983 0) scale(0.996264)"/>
    </g>
   </g>
   <g id="legend_1">
    <g id="line2d_4">
     <path d="M 470.394066 56.882683 
L 480.894066 56.882683 
L 491.394066 56.882683 
" style="fill: none; stroke: #1f77b4; stroke-width: 1.3; stroke-linecap: square"/>
    </g>
    <g id="text_3">
     <!-- $E_1=\cos((\omega_0 - \Delta \omega) t)$ -->
     <g transform="translate(502.594066 61.782683) scale(0.14 -0.14)">
      <defs>
       <path id="CMMI12-45" d="M 4448 1489 
C 4454 1508 4474 1553 4474 1578 
C 4474 1611 4448 1643 4410 1643 
C 4384 1643 4371 1636 4352 1617 
C 4339 1611 4339 1598 4282 1469 
C 3904 570 3629 185 2605 185 
L 1670 185 
C 1581 185 1568 185 1530 192 
C 1459 198 1453 211 1453 262 
C 1453 307 1466 346 1478 403 
L 1920 2176 
L 2554 2176 
C 3053 2176 3091 2066 3091 1874 
C 3091 1810 3091 1752 3046 1559 
C 3034 1534 3027 1508 3027 1489 
C 3027 1444 3059 1424 3098 1424 
C 3155 1424 3162 1469 3187 1559 
L 3552 3036 
C 3552 3068 3526 3099 3488 3099 
C 3430 3099 3424 3074 3398 2986 
C 3270 2500 3142 2361 2573 2361 
L 1965 2361 
L 2362 3913 
C 2419 4134 2432 4153 2694 4153 
L 3610 4153 
C 4397 4153 4557 3945 4557 3465 
C 4557 3459 4557 3282 4531 3074 
C 4525 3049 4518 3011 4518 2998 
C 4518 2948 4550 2929 4589 2929 
C 4634 2929 4659 2954 4672 3068 
L 4806 4172 
C 4806 4191 4819 4255 4819 4268 
C 4819 4339 4762 4339 4646 4339 
L 1523 4339 
C 1402 4339 1338 4339 1338 4223 
C 1338 4153 1382 4153 1491 4153 
C 1888 4153 1888 4109 1888 4039 
C 1888 4008 1882 3983 1862 3913 
L 998 474 
C 941 249 928 185 480 185 
C 358 185 294 185 294 70 
C 294 0 333 0 461 0 
L 3674 0 
C 3814 0 3821 6 3866 108 
L 4448 1489 
z
" transform="scale(0.015625)"/>
       <path id="CMR17-31" d="M 1702 4083 
C 1702 4217 1696 4224 1606 4224 
C 1357 3927 979 3833 621 3820 
C 602 3820 570 3820 563 3808 
C 557 3795 557 3782 557 3648 
C 755 3648 1088 3686 1344 3839 
L 1344 467 
C 1344 243 1331 166 781 166 
L 589 166 
L 589 0 
C 896 6 1216 12 1523 12 
C 1830 12 2150 6 2458 0 
L 2458 166 
L 2266 166 
C 1715 166 1702 236 1702 467 
L 1702 4083 
z
" transform="scale(0.015625)"/>
       <path id="CMR17-3d" d="M 4115 2048 
C 4211 2048 4307 2048 4307 2156 
C 4307 2272 4198 2272 4090 2272 
L 512 2272 
C 403 2272 294 2272 294 2156 
C 294 2048 390 2048 486 2048 
L 4115 2048 
z
M 4090 927 
C 4198 927 4307 927 4307 1043 
C 4307 1152 4211 1152 4115 1152 
L 486 1152 
C 390 1152 294 1152 294 1043 
C 294 927 403 927 512 927 
L 4090 927 
z
" transform="scale(0.015625)"/>
       <path id="CMR17-63" d="M 2234 2240 
C 2112 2240 1933 2240 1933 2015 
C 1933 1836 2080 1785 2163 1785 
C 2208 1785 2394 1804 2394 2028 
C 2394 2476 1958 2816 1466 2816 
C 787 2816 211 2201 211 1379 
C 211 521 813 -64 1466 -64 
C 2259 -64 2458 676 2458 747 
C 2458 773 2451 792 2406 792 
C 2362 792 2355 786 2330 702 
C 2163 180 1798 51 1523 51 
C 1114 51 621 431 621 1385 
C 621 2358 1094 2700 1472 2700 
C 1722 2700 2093 2582 2234 2240 
z
" transform="scale(0.015625)"/>
       <path id="CMR17-6f" d="M 2758 1356 
C 2758 2176 2163 2816 1466 2816 
C 768 2816 173 2176 173 1356 
C 173 550 768 -64 1466 -64 
C 2163 -64 2758 550 2758 1356 
z
M 1466 51 
C 1165 51 909 230 762 480 
C 602 768 582 1126 582 1408 
C 582 1676 595 2009 762 2297 
C 890 2508 1139 2713 1466 2713 
C 1754 2713 1997 2553 2150 2329 
C 2349 2028 2349 1606 2349 1408 
C 2349 1158 2336 774 2163 467 
C 1984 172 1709 51 1466 51 
z
" transform="scale(0.015625)"/>
       <path id="CMR17-73" d="M 1978 2688 
C 1978 2803 1971 2809 1933 2809 
C 1907 2809 1901 2803 1824 2707 
C 1805 2681 1747 2617 1728 2592 
C 1523 2809 1235 2816 1126 2816 
C 416 2816 160 2444 160 2073 
C 160 1497 813 1363 998 1324 
C 1402 1241 1542 1216 1677 1100 
C 1760 1024 1901 883 1901 652 
C 1901 384 1747 38 1158 38 
C 602 38 403 460 288 1024 
C 269 1113 269 1120 218 1120 
C 166 1120 160 1113 160 985 
L 160 64 
C 160 -52 166 -58 205 -58 
C 237 -58 243 -52 275 0 
C 314 57 410 211 448 275 
C 576 102 800 -64 1158 -64 
C 1792 -64 2131 281 2131 780 
C 2131 1107 1958 1280 1875 1356 
C 1683 1555 1459 1600 1190 1651 
C 838 1728 390 1817 390 2208 
C 390 2374 480 2726 1126 2726 
C 1811 2726 1850 2086 1862 1881 
C 1869 1849 1901 1843 1920 1843 
C 1978 1843 1978 1862 1978 1971 
L 1978 2688 
z
" transform="scale(0.015625)"/>
       <path id="CMMI12-21" d="M 3802 2406 
C 3802 2592 3750 2828 3526 2828 
C 3398 2828 3251 2668 3251 2540 
C 3251 2483 3277 2444 3328 2387 
C 3424 2278 3546 2105 3546 1804 
C 3546 1574 3405 1209 3302 1011 
C 3123 659 2829 358 2496 358 
C 2093 358 1939 614 1869 972 
C 1939 1139 2086 1555 2086 1721 
C 2086 1792 2061 1849 1978 1849 
C 1933 1849 1882 1824 1850 1772 
C 1760 1632 1677 1126 1683 992 
C 1562 755 1216 358 806 358 
C 378 358 262 736 262 1100 
C 262 1766 678 2348 794 2508 
C 858 2604 902 2668 902 2681 
C 902 2726 877 2796 819 2796 
C 717 2796 685 2713 634 2636 
C 307 2131 77 1420 77 806 
C 77 409 224 -64 704 -64 
C 1235 -64 1568 390 1702 633 
C 1754 275 1946 -64 2413 -64 
C 2899 -64 3206 364 3437 883 
C 3603 1254 3802 2054 3802 2406 
z
" transform="scale(0.015625)"/>
       <path id="CMR17-30" d="M 2688 2038 
C 2688 2430 2682 3099 2413 3613 
C 2176 4063 1798 4224 1466 4224 
C 1158 4224 768 4082 525 3620 
C 269 3137 243 2539 243 2038 
C 243 1671 250 1112 448 623 
C 723 -39 1216 -128 1466 -128 
C 1760 -128 2208 -7 2470 604 
C 2662 1048 2688 1568 2688 2038 
z
M 1466 -26 
C 1056 -26 813 328 723 816 
C 653 1196 653 1749 653 2109 
C 653 2604 653 3015 736 3407 
C 858 3954 1216 4121 1466 4121 
C 1728 4121 2067 3947 2189 3420 
C 2272 3054 2278 2623 2278 2109 
C 2278 1691 2278 1176 2202 797 
C 2067 96 1690 -26 1466 -26 
z
" transform="scale(0.015625)"/>
       <path id="CMSY10-0" d="M 4218 1472 
C 4326 1472 4442 1472 4442 1600 
C 4442 1728 4326 1728 4218 1728 
L 755 1728 
C 646 1728 531 1728 531 1600 
C 531 1472 646 1472 755 1472 
L 4218 1472 
z
" transform="scale(0.015625)"/>
       <path id="CMR17-1" d="M 2598 4435 
C 2547 4544 2522 4544 2470 4544 
C 2394 4544 2387 4531 2342 4441 
L 269 108 
C 262 96 237 38 237 32 
C 237 6 243 0 358 0 
L 4576 0 
C 4691 0 4698 6 4698 32 
C 4698 38 4672 96 4666 108 
L 2598 4435 
z
M 2310 4056 
L 4083 358 
L 531 358 
L 2310 4056 
z
" transform="scale(0.015625)"/>
      </defs>
      <use xlink:href="#CMMI12-45" transform="scale(0.996264)"/>
      <use xlink:href="#CMR17-31" transform="translate(72.211218 -14.943915) scale(0.697382)"/>
      <use xlink:href="#CMR17-3d" transform="translate(132.366541 0) scale(0.996264)"/>
      <use xlink:href="#CMR17-63" transform="translate(231.755338 0) scale(0.996264)"/>
      <use xlink:href="#CMR17-6f" transform="translate(272.240998 0) scale(0.996264)"/>
      <use xlink:href="#CMR17-73" transform="translate(317.931475 0) scale(0.996264)"/>
      <use xlink:href="#CMR17-28" transform="translate(353.732813 0) scale(0.996264)"/>
      <use xlink:href="#CMR17-28" transform="translate(389.013581 0) scale(0.996264)"/>
      <use xlink:href="#CMMI12-21" transform="translate(424.294348 0) scale(0.996264)"/>
      <use xlink:href="#CMR17-30" transform="translate(485.038102 -14.943915) scale(0.697382)"/>
      <use xlink:href="#CMSY10-0" transform="translate(539.658623 0) scale(0.996264)"/>
      <use xlink:href="#CMR17-1" transform="translate(639.285297 0) scale(0.996264)"/>
      <use xlink:href="#CMMI12-21" transform="translate(716.204887 0) scale(0.996264)"/>
      <use xlink:href="#CMR17-29" transform="translate(780.523233 0) scale(0.996264)"/>
      <use xlink:href="#CMMI12-74" transform="translate(815.804001 0) scale(0.996264)"/>
      <use xlink:href="#CMR17-29" transform="translate(851.030331 0) scale(0.996264)"/>
     </g>
    </g>
    <g id="line2d_5">
     <path d="M 470.394066 77.830379 
L 480.894066 77.830379 
L 491.394066 77.830379 
" style="fill: none; stroke: #d62728; stroke-width: 1.3; stroke-linecap: square"/>
    </g>
    <g id="text_4">
     <!-- $E_2=\cos((\omega_0 + \Delta \omega) t)$ -->
     <g transform="translate(502.594066 82.730379) scale(0.14 -0.14)">
      <defs>
       <path id="CMR17-32" d="M 2669 990 
L 2554 990 
C 2490 537 2438 460 2413 422 
C 2381 371 1920 371 1830 371 
L 602 371 
C 832 620 1280 1073 1824 1596 
C 2214 1966 2669 2400 2669 3033 
C 2669 3788 2067 4224 1395 4224 
C 691 4224 262 3603 262 3027 
C 262 2777 448 2745 525 2745 
C 589 2745 781 2783 781 3007 
C 781 3206 614 3264 525 3264 
C 486 3264 448 3257 422 3244 
C 544 3788 915 4057 1306 4057 
C 1862 4057 2227 3616 2227 3033 
C 2227 2477 1901 1998 1536 1583 
L 262 147 
L 262 0 
L 2515 0 
L 2669 990 
z
" transform="scale(0.015625)"/>
       <path id="CMR17-2b" d="M 2413 1472 
L 4109 1472 
C 4198 1472 4307 1472 4307 1580 
C 4307 1696 4205 1696 4109 1696 
L 2413 1696 
L 2413 3385 
C 2413 3475 2413 3584 2304 3584 
C 2189 3584 2189 3481 2189 3385 
L 2189 1696 
L 493 1696 
C 403 1696 294 1696 294 1587 
C 294 1472 397 1472 493 1472 
L 2189 1472 
L 2189 -194 
C 2189 -282 2189 -391 2298 -391 
C 2413 -391 2413 -289 2413 -194 
L 2413 1472 
z
" transform="scale(0.015625)"/>
      </defs>
      <use xlink:href="#CMMI12-45" transform="scale(0.996264)"/>
      <use xlink:href="#CMR17-32" transform="translate(72.211218 -14.943915) scale(0.697382)"/>
      <use xlink:href="#CMR17-3d" transform="translate(132.366541 0) scale(0.996264)"/>
      <use xlink:href="#CMR17-63" transform="translate(231.755338 0) scale(0.996264)"/>
      <use xlink:href="#CMR17-6f" transform="translate(272.240998 0) scale(0.996264)"/>
      <use xlink:href="#CMR17-73" transform="translate(317.931475 0) scale(0.996264)"/>
      <use xlink:href="#CMR17-28" transform="translate(353.732813 0) scale(0.996264)"/>
      <use xlink:href="#CMR17-28" transform="translate(389.013581 0) scale(0.996264)"/>
      <use xlink:href="#CMMI12-21" transform="translate(424.294348 0) scale(0.996264)"/>
      <use xlink:href="#CMR17-30" transform="translate(485.038102 -14.943915) scale(0.697382)"/>
      <use xlink:href="#CMR17-2b" transform="translate(539.658623 0) scale(0.996264)"/>
      <use xlink:href="#CMR17-1" transform="translate(633.512618 0) scale(0.996264)"/>
      <use xlink:href="#CMMI12-21" transform="translate(710.432208 0) scale(0.996264)"/>
      <use xlink:href="#CMR17-29" transform="translate(774.750554 0) scale(0.996264)"/>
      <use xlink:href="#CMMI12-74" transform="translate(810.031322 0) scale(0.996264)"/>
      <use xlink:href="#CMR17-29" transform="translate(845.257652 0) scale(0.996264)"/>
     </g>
    </g>
   </g>
   <g id="patch_3">
    <path d="M 3.6 73.204807 
Q 220.191991 73.204807 435.665948 73.204807 
" style="fill: none; stroke: #000000; stroke-linecap: round"/>
    <path d="M 429.665948 70.204807 
L 435.665948 73.204807 
L 429.665948 76.204807 
z
" style="stroke: #000000; stroke-linecap: round"/>
   </g>
   <g id="patch_4">
    <path d="M 210.690066 115.200726 
Q 210.690066 68.769199 210.690066 23.455705 
" style="fill: none; stroke: #000000; stroke-linecap: round"/>
    <path d="M 207.690066 29.455705 
L 210.690066 23.455705 
L 213.690066 29.455705 
z
" style="stroke: #000000; stroke-linecap: round"/>
   </g>
  </g>
  <g id="axes_2">
   <g id="patch_5">
    <path d="M 20.610066 228.436807 
L 400.770066 228.436807 
L 400.770066 148.603207 
L 20.610066 148.603207 
z
" style="fill: #ffffff"/>
   </g>
   <g id="matplotlib.axis_3"/>
   <g id="matplotlib.axis_4"/>
   <g id="line2d_6">
    <path d="M -1 208.258518 
L 0.251147 200.626329 
L 2.53439 186.479123 
L 4.056552 178.83941 
L 4.817633 175.96305 
L 5.578715 173.832627 
L 6.339796 172.49565 
L 7.100877 171.966238 
L 7.861958 172.225753 
L 8.623039 173.224784 
L 9.38412 174.886372 
L 10.145201 177.110299 
L 11.667363 182.759463 
L 14.711688 195.111427 
L 15.472769 197.688436 
L 16.23385 199.86578 
L 16.994931 201.582437 
L 17.756012 202.801923 
L 18.517093 203.512793 
L 19.278174 203.727966 
L 20.039255 203.482929 
L 20.800336 202.832924 
L 21.561417 201.84929 
L 23.083579 199.220665 
L 25.366823 194.97884 
L 26.127904 193.814671 
L 26.888985 192.879811 
L 27.650066 192.212289 
L 28.411147 191.831063 
L 29.172228 191.735484 
L 29.933309 191.905804 
L 30.69439 192.304717 
L 32.216552 193.566868 
L 33.738715 194.984552 
L 34.499796 195.564578 
L 35.260877 195.964399 
L 36.021958 196.124342 
L 36.783039 195.998235 
L 37.54412 195.556519 
L 38.305201 194.788517 
L 39.066282 193.703751 
L 39.827363 192.332192 
L 41.349525 188.944916 
L 43.632769 183.464996 
L 44.39385 181.919614 
L 45.154931 180.681538 
L 45.916012 179.841174 
L 46.677093 179.475495 
L 47.438174 179.643556 
L 48.199255 180.382708 
L 48.960336 181.705716 
L 49.721417 183.598935 
L 50.482498 186.021663 
L 52.004661 192.162356 
L 55.810066 209.530543 
L 56.571147 212.208306 
L 57.332228 214.293991 
L 58.093309 215.675133 
L 58.85439 216.263561 
L 59.615471 216.00002 
L 60.376552 214.8577 
L 61.137633 212.844476 
L 61.898715 210.00375 
L 62.659796 206.413811 
L 64.181958 197.459732 
L 67.987363 172.616594 
L 68.748444 168.749986 
L 69.509525 165.665926 
L 70.270606 163.501173 
L 71.031688 162.36011 
L 71.792769 162.309912 
L 72.55385 163.377141 
L 73.314931 165.545898 
L 74.076012 168.757656 
L 74.837093 172.912787 
L 76.359255 183.469905 
L 80.164661 213.544587 
L 80.925742 218.40587 
L 81.686823 222.402855 
L 82.447904 225.378791 
L 83.208985 227.213947 
L 83.970066 227.830544 
L 84.731147 227.19607 
L 85.492228 225.324858 
L 86.253309 222.277835 
L 87.01439 218.160457 
L 88.536552 207.334573 
L 93.103039 169.723406 
L 93.86412 165.138171 
L 94.625201 161.561244 
L 95.386282 159.1204 
L 96.147363 157.900532 
L 96.908444 157.940575 
L 97.669525 159.232202 
L 98.430606 161.720381 
L 99.191688 165.305727 
L 99.952769 169.848572 
L 101.474931 181.081639 
L 104.519255 205.968907 
L 106.041417 216.019707 
L 106.802498 219.776524 
L 107.563579 222.511753 
L 108.324661 224.142803 
L 109.085742 224.629931 
L 109.846823 223.977086 
L 110.607904 222.231026 
L 111.368985 219.478773 
L 112.130066 215.843513 
L 113.652228 206.563747 
L 117.457633 180.678678 
L 118.218715 176.577498 
L 118.979796 173.201274 
L 119.740877 170.651479 
L 120.501958 168.994607 
L 121.263039 168.26054 
L 122.02412 168.442442 
L 122.785201 169.49815 
L 123.546282 171.352972 
L 124.307363 173.903747 
L 125.829525 180.569672 
L 129.634931 199.252358 
L 130.396012 202.178792 
L 131.157093 204.577214 
L 131.918174 206.384701 
L 132.679255 207.566416 
L 133.440336 208.115882 
L 134.201417 208.053998 
L 134.962498 207.426863 
L 135.723579 206.30255 
L 136.484661 204.766996 
L 138.006823 200.866122 
L 140.290066 194.549411 
L 141.812228 191.148556 
L 142.573309 189.898966 
L 143.33439 188.998237 
L 144.095471 188.456202 
L 144.856552 188.261845 
L 145.617633 188.38475 
L 146.378715 188.777527 
L 147.900877 190.118374 
L 150.18412 192.398696 
L 150.945201 192.938224 
L 151.706282 193.268396 
L 152.467363 193.350329 
L 153.228444 193.162547 
L 153.989525 192.702425 
L 154.750606 191.986601 
L 156.272769 189.945966 
L 159.317093 185.319758 
L 160.078174 184.530161 
L 160.839255 184.049662 
L 161.600336 183.943612 
L 162.361417 184.261463 
L 163.122498 185.033345 
L 163.883579 186.267522 
L 164.644661 187.948852 
L 165.405742 190.03835 
L 166.927904 195.172264 
L 169.972228 206.377208 
L 170.733309 208.655756 
L 171.49439 210.477289 
L 172.255471 211.735293 
L 173.016552 212.342127 
L 173.777633 212.233759 
L 174.538715 211.373614 
L 175.299796 209.755325 
L 176.060877 207.404249 
L 176.821958 204.377636 
L 178.34412 196.67759 
L 182.149525 174.623114 
L 182.910606 171.100382 
L 183.671688 168.260595 
L 184.432769 166.236466 
L 185.19385 165.132571 
L 185.954931 165.020337 
L 186.716012 165.934283 
L 187.477093 167.869679 
L 188.238174 170.781764 
L 188.999255 174.586579 
L 190.521417 184.358747 
L 195.087904 217.371028 
L 195.848985 221.221209 
L 196.610066 224.110067 
L 197.371147 225.915098 
L 198.132228 226.553224 
L 198.893309 225.984531 
L 199.65439 224.214343 
L 200.415471 221.293542 
L 201.176552 217.317093 
L 201.937633 212.420827 
L 203.459796 200.585916 
L 206.50412 174.985799 
L 207.265201 169.557879 
L 208.026282 164.950542 
L 208.787363 161.335473 
L 209.548444 158.847627 
L 210.309525 157.579996 
L 211.070606 157.579996 
L 211.831688 158.847627 
L 212.592769 161.335473 
L 213.35385 164.950542 
L 214.114931 169.557879 
L 215.637093 181.032532 
L 219.442498 212.420827 
L 220.203579 217.317093 
L 220.964661 221.293542 
L 221.725742 224.214343 
L 222.486823 225.984531 
L 223.247904 226.553224 
L 224.008985 225.915098 
L 224.770066 224.110067 
L 225.531147 221.221209 
L 226.292228 217.371028 
L 227.81439 207.441161 
L 231.619796 179.163405 
L 232.380877 174.586579 
L 233.141958 170.781764 
L 233.903039 167.869679 
L 234.66412 165.934283 
L 235.425201 165.020337 
L 236.186282 165.132571 
L 236.947363 166.236466 
L 237.708444 168.260595 
L 238.469525 171.100382 
L 239.230606 174.623114 
L 240.752769 183.082784 
L 243.797093 200.76341 
L 244.558174 204.377636 
L 245.319255 207.404249 
L 246.080336 209.755325 
L 246.841417 211.373614 
L 247.602498 212.233759 
L 248.363579 212.342127 
L 249.124661 211.735293 
L 249.885742 210.477289 
L 250.646823 208.655756 
L 252.168985 203.761635 
L 255.97439 190.03835 
L 256.735471 187.948852 
L 257.496552 186.267522 
L 258.257633 185.033345 
L 259.018715 184.261463 
L 259.779796 183.943612 
L 260.540877 184.049662 
L 261.301958 184.530161 
L 262.063039 185.319758 
L 263.585201 187.510356 
L 265.868444 191.050359 
L 266.629525 191.986601 
L 267.390606 192.702425 
L 268.151688 193.162547 
L 268.912769 193.350329 
L 269.67385 193.268396 
L 270.434931 192.938224 
L 271.196012 192.398696 
L 272.718174 190.919049 
L 274.240336 189.379053 
L 275.001417 188.777527 
L 275.762498 188.38475 
L 276.523579 188.261845 
L 277.284661 188.456202 
L 278.045742 188.998237 
L 278.806823 189.898966 
L 279.567904 191.148556 
L 280.328985 192.71592 
L 281.851147 196.578599 
L 284.13439 202.919222 
L 284.895471 204.766996 
L 285.656552 206.30255 
L 286.417633 207.426863 
L 287.178715 208.053998 
L 287.939796 208.115882 
L 288.700877 207.566416 
L 289.461958 206.384701 
L 290.223039 204.577214 
L 290.98412 202.178792 
L 292.506282 195.887355 
L 294.789525 184.38602 
L 296.311688 177.023959 
L 297.072769 173.903747 
L 297.83385 171.352972 
L 298.594931 169.49815 
L 299.356012 168.442442 
L 300.117093 168.26054 
L 300.878174 168.994607 
L 301.639255 170.651479 
L 302.400336 173.201274 
L 303.161417 176.577498 
L 304.683579 185.371494 
L 309.250066 215.843513 
L 310.011147 219.478773 
L 310.772228 222.231026 
L 311.533309 223.977086 
L 312.29439 224.629931 
L 313.055471 224.142803 
L 313.816552 222.511753 
L 314.577633 219.776524 
L 315.338715 216.019707 
L 316.099796 211.364179 
L 317.621958 200.023276 
L 320.666282 175.174576 
L 322.188444 165.305727 
L 322.949525 161.720381 
L 323.710606 159.232202 
L 324.471688 157.940575 
L 325.232769 157.900532 
L 325.99385 159.1204 
L 326.754931 161.561244 
L 327.516012 165.138171 
L 328.277093 169.723406 
L 329.799255 181.223414 
L 333.604661 213.118885 
L 334.365742 218.160457 
L 335.126823 222.277835 
L 335.887904 225.324858 
L 336.648985 227.19607 
L 337.410066 227.830544 
L 338.171147 227.213947 
L 338.932228 225.378791 
L 339.693309 222.402855 
L 340.45439 218.40587 
L 341.976552 208.006452 
L 345.781958 177.873762 
L 346.543039 172.912787 
L 347.30412 168.757656 
L 348.065201 165.545898 
L 348.826282 163.377141 
L 349.587363 162.309912 
L 350.348444 162.36011 
L 351.109525 163.501173 
L 351.870606 165.665926 
L 352.631688 168.749986 
L 353.392769 172.616594 
L 354.914931 182.025538 
L 357.959255 202.185716 
L 358.720336 206.413811 
L 359.481417 210.00375 
L 360.242498 212.844476 
L 361.003579 214.8577 
L 361.764661 216.00002 
L 362.525742 216.263561 
L 363.286823 215.675133 
L 364.047904 214.293991 
L 364.808985 212.208306 
L 365.570066 209.530543 
L 367.092228 202.936489 
L 370.136552 188.906734 
L 370.897633 186.021663 
L 371.658715 183.598935 
L 372.419796 181.705716 
L 373.180877 180.382708 
L 373.941958 179.643556 
L 374.703039 179.475495 
L 375.46412 179.841174 
L 376.225201 180.681538 
L 376.986282 181.919614 
L 378.508444 185.218802 
L 380.791688 190.723455 
L 382.31385 193.703751 
L 383.074931 194.788517 
L 383.836012 195.556519 
L 384.597093 195.998235 
L 385.358174 196.124342 
L 386.119255 195.964399 
L 386.880336 195.564578 
L 388.402498 194.293703 
L 389.924661 192.879817 
L 390.685742 192.304717 
L 391.446823 191.905804 
L 392.207904 191.735484 
L 392.968985 191.831063 
L 393.730066 192.212289 
L 394.491147 192.879811 
L 395.252228 193.814671 
L 396.77439 196.316794 
L 399.818715 201.84929 
L 400.579796 202.832924 
L 401.340877 203.482929 
L 402.101958 203.727966 
L 402.863039 203.512793 
L 403.62412 202.801923 
L 404.385201 201.582437 
L 405.146282 199.86578 
L 405.907363 197.688436 
L 407.429525 192.218609 
L 411.234931 177.110299 
L 411.996012 174.886372 
L 412.757093 173.224784 
L 413.518174 172.225753 
L 414.279255 171.966238 
L 415.040336 172.49565 
L 415.801417 173.832627 
L 416.562498 175.96305 
L 417.323579 178.83941 
L 418.084661 182.3816 
L 419.606823 190.994659 
L 422.651147 209.849221 
L 423.412228 213.846058 
L 424.173309 217.203995 
L 424.93439 219.774542 
L 425.695471 221.435864 
L 426.456552 222.098361 
L 427.217633 221.70905 
L 427.978715 220.254548 
L 428.739796 217.762509 
L 429.500877 214.30143 
L 430.261958 209.9788 
L 431.78412 199.351598 
L 434.828444 175.723714 
L 436.350606 166.203965 
L 437.111688 162.713781 
L 437.872769 160.269893 
L 438.63385 158.976329 
L 439.394931 158.894802 
L 440.156012 160.041883 
L 440.917093 162.387907 
L 441.678174 165.857691 
L 442.439255 170.333046 
L 443.961417 181.639469 
L 447.766823 213.435197 
L 448.527904 218.525259 
L 449.288985 222.703849 
L 450.050066 225.817226 
L 450.811147 227.751467 
L 451.572228 228.436807 
L 452.333309 227.850268 
L 453.09439 226.01646 
L 453.855471 223.006541 
L 454.616552 218.935368 
L 456.138715 208.25845 
L 460.705201 171.596746 
L 461.466282 167.174951 
L 462.227363 163.730326 
L 462.988444 161.376125 
L 463.749525 160.183337 
L 464.510606 160.178484 
L 465.271688 161.343189 
L 466.032769 163.615494 
L 466.79385 166.892876 
L 467.554931 171.036803 
L 469.077093 181.226634 
L 472.121417 203.483967 
L 473.643579 212.31941 
L 474.404661 215.587543 
L 475.165742 217.94771 
L 475.926823 219.339595 
L 476.687904 219.741591 
L 477.448985 219.170642 
L 478.210066 217.680533 
L 478.971147 215.358739 
L 479.732228 212.321981 
L 481.25439 204.682785 
L 484.298715 187.780656 
L 485.820877 181.048116 
L 486.581958 178.541024 
L 487.343039 176.703206 
L 488.10412 175.569588 
L 488.865201 175.144582 
L 489.626282 175.403156 
L 490.387363 176.293155 
L 491.148444 177.738721 
L 491.909525 179.644637 
L 493.431688 184.390616 
L 495.714931 192.057292 
L 497.237093 196.272035 
L 497.998174 197.869403 
L 498.759255 199.065993 
L 499.520336 199.844362 
L 500.281417 200.209539 
L 501.042498 200.18771 
L 501.803579 199.823893 
L 502.564661 199.178735 
L 504.086823 197.34125 
L 506.370066 194.424861 
L 507.131147 193.706009 
L 507.892228 193.206934 
L 508.653309 192.960169 
L 509.41439 192.979854 
L 510.175471 193.261022 
L 510.936552 193.779932 
L 512.458715 195.351244 
L 514.741958 198.042271 
L 515.503039 198.718062 
L 516.26412 199.156454 
L 517.025201 199.293587 
L 517.786282 199.07958 
L 518.547363 198.481934 
L 519.308444 197.488131 
L 520.069525 196.10726 
L 520.830606 194.370589 
L 522.352769 190.061424 
L 525.397093 180.661679 
L 526.158174 178.79501 
L 526.919255 177.345585 
L 527.680336 176.409248 
L 528.441417 176.064236 
L 529.202498 176.366722 
L 529.963579 177.347211 
L 530.724661 179.007983 
L 531.485742 181.321725 
L 532.246823 184.231446 
L 533.768985 191.471262 
L 537.57439 211.411141 
L 538.335471 214.436147 
L 539.096552 216.785038 
L 539.857633 218.339291 
L 540.618715 219.008076 
L 541.379796 218.732856 
L 542.140877 217.490764 
L 542.901958 215.296577 
L 543.663039 212.203185 
L 544.42412 208.300493 
L 545.946282 198.594569 
L 549.751688 171.801667 
L 550.512769 167.634673 
L 551.27385 164.301451 
L 552.034931 161.943626 
L 552.796012 160.668096 
L 553.557093 160.542273 
L 554.318174 161.590808 
L 555.079255 163.793986 
L 555.840336 167.087848 
L 556.601417 171.366068 
L 558.123579 182.261492 
L 561.928985 213.353952 
L 562.690066 218.396193 
L 563.451147 222.556827 
L 564.212228 225.677372 
L 564.973309 227.637544 
L 565.73439 228.360048 
L 566.495471 227.813705 
L 567.256552 226.014805 
L 568.017633 223.026609 
L 568.778715 218.957022 
L 569.539796 213.95453 
L 571.061958 201.912453 
L 574.106282 176.104152 
L 574.867363 170.672615 
L 575.628444 166.071483 
L 576.389525 162.463581 
L 577.150606 159.973559 
L 577.911688 158.683387 
L 578.672769 158.629535 
L 579.43385 159.801949 
L 580.194931 162.144831 
L 580.956012 165.559206 
L 581.717093 169.907132 
L 583.239255 180.692464 
L 586.283579 204.624265 
L 587.805742 214.299633 
L 588.566823 217.925984 
L 589.327904 220.579863 
L 590.088985 222.185435 
L 590.850066 222.708079 
L 590.850066 222.708079 
" clip-path="url(#p5c06f9e4e1)" style="fill: none; stroke: #000000; stroke-width: 1.3; stroke-linecap: square"/>
   </g>
   <g id="line2d_7">
    <path d="M -1 166.158443 
L 2.53439 168.431909 
L 6.339796 171.117228 
L 10.906282 174.625686 
L 16.23385 179.048981 
L 22.322498 184.43273 
L 31.455471 192.872687 
L 32.216552 192.327418 
L 42.871688 182.538355 
L 48.960336 177.262549 
L 53.526823 173.562265 
L 58.093309 170.141463 
L 61.898715 167.539992 
L 65.70412 165.192969 
L 69.509525 163.123893 
L 73.314931 161.353477 
L 76.359255 160.164198 
L 79.403579 159.185088 
L 82.447904 158.422425 
L 85.492228 157.881095 
L 88.536552 157.56457 
L 91.580877 157.474877 
L 94.625201 157.612591 
L 97.669525 157.97683 
L 100.71385 158.565259 
L 103.758174 159.374107 
L 106.802498 160.39819 
L 109.846823 161.630943 
L 112.891147 163.064465 
L 116.696552 165.124586 
L 120.501958 167.463337 
L 124.307363 170.057304 
L 128.87385 173.470219 
L 133.440336 177.163943 
L 138.767904 181.75699 
L 145.617633 187.971835 
L 150.945201 192.9277 
L 153.228444 190.852919 
L 162.361417 182.485778 
L 168.450066 177.213227 
L 173.016552 173.516219 
L 177.583039 170.099356 
L 181.388444 167.501634 
L 185.19385 165.158744 
L 188.999255 163.094143 
L 192.804661 161.328501 
L 195.848985 160.143223 
L 198.893309 159.168249 
L 201.937633 158.409829 
L 204.981958 157.872824 
L 208.026282 157.560676 
L 211.070606 157.475385 
L 214.114931 157.617498 
L 217.159255 157.986105 
L 220.203579 158.578842 
L 223.247904 159.391911 
L 226.292228 160.4201 
L 229.336552 161.65682 
L 232.380877 163.094143 
L 236.186282 165.158744 
L 239.991688 167.501634 
L 243.797093 170.099356 
L 248.363579 173.516219 
L 252.930066 177.213227 
L 258.257633 181.809206 
L 265.107363 188.026309 
L 270.434931 192.9277 
L 281.090066 183.113679 
L 287.178715 177.803179 
L 292.506282 173.470219 
L 297.072769 170.057304 
L 300.878174 167.463337 
L 304.683579 165.124586 
L 308.488985 163.064465 
L 312.29439 161.303601 
L 315.338715 160.122327 
L 318.383039 159.151491 
L 321.427363 158.397316 
L 324.471688 157.864637 
L 327.516012 157.556866 
L 330.560336 157.475978 
L 333.604661 157.62249 
L 336.648985 157.995463 
L 339.693309 158.592507 
L 342.737633 159.409795 
L 345.781958 160.442089 
L 348.826282 161.682772 
L 351.870606 163.123893 
L 355.676012 165.192969 
L 359.481417 167.539992 
L 363.286823 170.141463 
L 367.853309 173.562265 
L 372.419796 177.262549 
L 377.747363 181.861448 
L 384.597093 188.080796 
L 389.924661 192.872687 
L 400.579796 183.060835 
L 406.668444 177.753452 
L 411.996012 173.424267 
L 416.562498 170.015307 
L 420.367904 167.425101 
L 424.173309 165.090494 
L 427.978715 163.034859 
L 431.78412 161.278777 
L 434.828444 160.10151 
L 437.872769 159.134814 
L 440.917093 158.384887 
L 443.961417 157.856534 
L 447.005742 157.553142 
L 450.050066 157.476657 
L 453.09439 157.627567 
L 456.138715 158.004906 
L 459.183039 158.606255 
L 462.227363 159.42776 
L 465.271688 160.464156 
L 468.316012 161.7088 
L 471.360336 163.153714 
L 475.165742 165.227261 
L 478.971147 167.578411 
L 482.776552 170.183625 
L 487.343039 173.608358 
L 491.909525 177.311908 
L 497.237093 181.913717 
L 504.086823 188.135294 
L 508.653309 192.382424 
L 509.41439 192.817673 
L 520.069525 183.008016 
L 526.158174 177.703761 
L 531.485742 173.378361 
L 536.052228 169.973365 
L 539.857633 167.386927 
L 543.663039 165.05647 
L 547.468444 163.005326 
L 551.27385 161.25403 
L 554.318174 160.080771 
L 557.362498 159.118218 
L 560.406823 158.37254 
L 563.451147 157.848515 
L 566.495471 157.549504 
L 569.539796 157.477421 
L 572.58412 157.632729 
L 575.628444 158.014433 
L 578.672769 158.620086 
L 581.717093 159.445806 
L 584.761417 160.486301 
L 587.805742 161.734902 
L 590.850066 163.183607 
L 590.850066 163.183607 
" clip-path="url(#p5c06f9e4e1)" style="fill: none; stroke-dasharray: 6.5,6.5; stroke-dashoffset: 0; stroke: #000000; stroke-width: 1.3"/>
   </g>
   <g id="line2d_8">
    <path d="M -1 219.751972 
L 2.53439 217.478505 
L 6.339796 214.793186 
L 10.906282 211.284729 
L 16.23385 206.861434 
L 22.322498 201.477684 
L 31.455471 193.037728 
L 32.216552 193.582996 
L 42.871688 203.37206 
L 48.960336 208.647866 
L 53.526823 212.348149 
L 58.093309 215.768951 
L 61.898715 218.370423 
L 65.70412 220.717445 
L 69.509525 222.786522 
L 73.314931 224.556937 
L 76.359255 225.746217 
L 79.403579 226.725326 
L 82.447904 227.48799 
L 85.492228 228.029319 
L 88.536552 228.345845 
L 91.580877 228.435538 
L 94.625201 228.297823 
L 97.669525 227.933584 
L 100.71385 227.345155 
L 103.758174 226.536307 
L 106.802498 225.512225 
L 109.846823 224.279472 
L 112.891147 222.845949 
L 116.696552 220.785829 
L 120.501958 218.447078 
L 124.307363 215.853111 
L 128.87385 212.440195 
L 133.440336 208.746472 
L 138.767904 204.153424 
L 145.617633 197.93858 
L 150.945201 192.982714 
L 153.228444 195.057495 
L 162.361417 203.424637 
L 168.450066 208.697188 
L 173.016552 212.394196 
L 177.583039 215.811058 
L 181.388444 218.408781 
L 185.19385 220.75167 
L 188.999255 222.816271 
L 192.804661 224.581913 
L 195.848985 225.767192 
L 198.893309 226.742166 
L 201.937633 227.500586 
L 204.981958 228.037591 
L 208.026282 228.349739 
L 211.070606 228.43503 
L 214.114931 228.292916 
L 217.159255 227.92431 
L 220.203579 227.331572 
L 223.247904 226.518503 
L 226.292228 225.490314 
L 229.336552 224.253595 
L 232.380877 222.816271 
L 236.186282 220.75167 
L 239.991688 218.408781 
L 243.797093 215.811058 
L 248.363579 212.394196 
L 252.930066 208.697188 
L 258.257633 204.101209 
L 265.107363 197.884105 
L 270.434931 192.982714 
L 281.090066 202.796735 
L 287.178715 208.107236 
L 292.506282 212.440195 
L 297.072769 215.853111 
L 300.878174 218.447078 
L 304.683579 220.785829 
L 308.488985 222.845949 
L 312.29439 224.606813 
L 315.338715 225.788088 
L 318.383039 226.758924 
L 321.427363 227.513098 
L 324.471688 228.045778 
L 327.516012 228.353548 
L 330.560336 228.434436 
L 333.604661 228.287924 
L 336.648985 227.914951 
L 339.693309 227.317907 
L 342.737633 226.500619 
L 345.781958 225.468325 
L 348.826282 224.227642 
L 351.870606 222.786522 
L 355.676012 220.717445 
L 359.481417 218.370423 
L 363.286823 215.768951 
L 367.853309 212.348149 
L 372.419796 208.647866 
L 377.747363 204.048967 
L 384.597093 197.829619 
L 389.924661 193.037728 
L 400.579796 202.849579 
L 406.668444 208.156963 
L 411.996012 212.486148 
L 416.562498 215.895108 
L 420.367904 218.485313 
L 424.173309 220.81992 
L 427.978715 222.875555 
L 431.78412 224.631637 
L 434.828444 225.808905 
L 437.872769 226.7756 
L 440.917093 227.525528 
L 443.961417 228.053881 
L 447.005742 228.357272 
L 450.050066 228.433758 
L 453.09439 228.282847 
L 456.138715 227.905508 
L 459.183039 227.304159 
L 462.227363 226.482654 
L 465.271688 225.446258 
L 468.316012 224.201615 
L 471.360336 222.7567 
L 475.165742 220.683153 
L 478.971147 218.332004 
L 482.776552 215.72679 
L 487.343039 212.302056 
L 491.909525 208.598506 
L 497.237093 203.996698 
L 504.086823 197.775121 
L 508.653309 193.52799 
L 509.41439 193.092741 
L 520.069525 202.902399 
L 526.158174 208.206653 
L 531.485742 212.532053 
L 536.052228 215.937049 
L 539.857633 218.523488 
L 543.663039 220.853945 
L 547.468444 222.905089 
L 551.27385 224.656385 
L 554.318174 225.829643 
L 557.362498 226.792196 
L 560.406823 227.537874 
L 563.451147 228.061899 
L 566.495471 228.360911 
L 569.539796 228.432994 
L 572.58412 228.277686 
L 575.628444 227.895982 
L 578.672769 227.290329 
L 581.717093 226.464608 
L 584.761417 225.424113 
L 587.805742 224.175512 
L 590.850066 222.726808 
L 590.850066 222.726808 
" clip-path="url(#p5c06f9e4e1)" style="fill: none; stroke-dasharray: 6.5,6.5; stroke-dashoffset: 0; stroke: #000000; stroke-width: 1.3"/>
   </g>
   <g id="text_5">
    <!--   $t$ -->
    <g transform="translate(438.786066 197.139513) scale(0.168 -0.168)">
     <use xlink:href="#CMMI12-74" transform="scale(0.996264)"/>
    </g>
   </g>
   <g id="text_6">
    <!-- $A(t)$ -->
    <g transform="translate(195.215062 135.903317) scale(0.168 -0.168)">
     <use xlink:href="#CMMI12-41" transform="scale(0.996264)"/>
     <use xlink:href="#CMR17-28" transform="translate(73.127885 0) scale(0.996264)"/>
     <use xlink:href="#CMMI12-74" transform="translate(108.408653 0) scale(0.996264)"/>
     <use xlink:href="#CMR17-29" transform="translate(143.634983 0) scale(0.996264)"/>
    </g>
   </g>
   <g id="legend_2">
    <g id="line2d_9">
     <path d="M 470.394066 176.690145 
L 480.894066 176.690145 
L 491.394066 176.690145 
" style="fill: none; stroke: #000000; stroke-width: 1.3; stroke-linecap: square"/>
    </g>
    <g id="text_7">
     <!-- $E_1 + E_2$ -->
     <g transform="translate(502.594066 181.590145) scale(0.14 -0.14)">
      <use xlink:href="#CMMI12-45" transform="scale(0.996264)"/>
      <use xlink:href="#CMR17-31" transform="translate(72.211218 -14.943915) scale(0.697382)"/>
      <use xlink:href="#CMR17-2b" transform="translate(126.831739 0) scale(0.996264)"/>
      <use xlink:href="#CMMI12-45" transform="translate(220.685734 0) scale(0.996264)"/>
      <use xlink:href="#CMR17-32" transform="translate(292.896952 -14.943915) scale(0.697382)"/>
     </g>
    </g>
    <g id="line2d_10">
     <path d="M 470.394066 196.862945 
L 480.894066 196.862945 
L 491.394066 196.862945 
" style="fill: none; stroke-dasharray: 6.5,6.5; stroke-dashoffset: 0; stroke: #000000; stroke-width: 1.3"/>
    </g>
    <g id="text_8">
     <!-- $\cos(\Delta\omega t)$ -->
     <g transform="translate(502.594066 201.762945) scale(0.14 -0.14)">
      <use xlink:href="#CMR17-63" transform="scale(0.996264)"/>
      <use xlink:href="#CMR17-6f" transform="translate(40.48566 0) scale(0.996264)"/>
      <use xlink:href="#CMR17-73" transform="translate(86.176138 0) scale(0.996264)"/>
      <use xlink:href="#CMR17-28" transform="translate(121.977475 0) scale(0.996264)"/>
      <use xlink:href="#CMR17-1" transform="translate(157.258243 0) scale(0.996264)"/>
      <use xlink:href="#CMMI12-21" transform="translate(234.177833 0) scale(0.996264)"/>
      <use xlink:href="#CMMI12-74" transform="translate(298.496179 0) scale(0.996264)"/>
      <use xlink:href="#CMR17-29" transform="translate(333.722509 0) scale(0.996264)"/>
     </g>
    </g>
   </g>
   <g id="patch_6">
    <path d="M 3.6 192.955207 
Q 220.191991 192.955207 435.665948 192.955207 
" style="fill: none; stroke: #000000; stroke-linecap: round"/>
    <path d="M 429.665948 189.955207 
L 435.665948 192.955207 
L 429.665948 195.955207 
z
" style="stroke: #000000; stroke-linecap: round"/>
   </g>
   <g id="patch_7">
    <path d="M 210.690066 234.951126 
Q 210.690066 188.519599 210.690066 143.206105 
" style="fill: none; stroke: #000000; stroke-linecap: round"/>
    <path d="M 207.690066 149.206105 
L 210.690066 143.206105 
L 213.690066 149.206105 
z
" style="stroke: #000000; stroke-linecap: round"/>
   </g>
  </g>
 </g>
 <defs>
  <clipPath id="p2075b40112">
   <rect x="20.610066" y="28.852807" width="380.16" height="79.8336"/>
  </clipPath>
  <clipPath id="p5c06f9e4e1">
   <rect x="20.610066" y="148.603207" width="380.16" height="79.8336"/>
  </clipPath>
 </defs>
</svg>
